<svg xmlns="http://www.w3.org/2000/svg" viewBox="0 0 512 512">
<defs>
  <linearGradient id="g" x1="0" y1="0" x2="1" y2="1">
    <stop offset="0" stop-color="#0369a1"/>
    <stop offset="1" stop-color="#0ea5e9"/>
  </linearGradient>
</defs>
<rect x="24" y="24" width="464" height="464" rx="112" fill="url(#g)"/>
<circle cx="256" cy="256" r="165" fill="white" opacity=".18"/>
<path d="M155 178c27-45 64-30 101-17 37-13 74-28 101 17 23 38 3 105-15 172-18 67-56 37-70 7-8-17-24-17-32 0-14 30-52 60-70-7-18-67-38-134-15-172z" fill="white"/>
<path d="M156 344 256 276l100 68" fill="none" stroke="#075985" stroke-width="24" stroke-linecap="round" stroke-linejoin="round"/>
<circle cx="156" cy="344" r="18" fill="#075985"/>
<circle cx="256" cy="276" r="18" fill="#075985"/>
<circle cx="356" cy="344" r="18" fill="#075985"/>
<text x="256" y="165" font-family="Arial, sans-serif" font-size="88" font-weight="900" text-anchor="middle" fill="#075985">F</text>
</svg>
